<svg xmlns="http://www.w3.org/2000/svg" viewBox="0 0 512 512" width="512" height="512">
  <defs>
    <!-- Background Gradient -->
    <linearGradient id="bg-grad-a" x1="0%" y1="0%" x2="100%" y2="100%">
      <stop offset="0%" stop-color="#1C1B17" />
      <stop offset="50%" stop-color="#141310" />
      <stop offset="100%" stop-color="#0C0B0A" />
    </linearGradient>

    <!-- Outer Rim Glow -->
    <linearGradient id="rim-grad-a" x1="0%" y1="0%" x2="100%" y2="100%">
      <stop offset="0%" stop-color="#FF6B2B" stop-opacity="0.8" />
      <stop offset="50%" stop-color="#F54E00" stop-opacity="0.3" />
      <stop offset="100%" stop-color="#24221D" stop-opacity="0.4" />
    </linearGradient>

    <!-- Ambient Center Glow -->
    <radialGradient id="center-glow-a" cx="50%" cy="50%" r="50%">
      <stop offset="0%" stop-color="#F54E00" stop-opacity="0.35" />
      <stop offset="50%" stop-color="#F54E00" stop-opacity="0.12" />
      <stop offset="100%" stop-color="#F54E00" stop-opacity="0" />
    </radialGradient>

    <!-- Main Dynamic Pulse Ribbon Gradient -->
    <linearGradient id="ribbon-grad" x1="10%" y1="90%" x2="90%" y2="10%">
      <stop offset="0%" stop-color="#D04200" />
      <stop offset="25%" stop-color="#F54E00" />
      <stop offset="60%" stop-color="#FF7528" />
      <stop offset="85%" stop-color="#FFA24A" />
      <stop offset="100%" stop-color="#FFBD75" />
    </linearGradient>

    <!-- Secondary Pulse Line Gradient -->
    <linearGradient id="pulse-line-grad" x1="0%" y1="0%" x2="100%" y2="0%">
      <stop offset="0%" stop-color="#F54E00" />
      <stop offset="50%" stop-color="#FFB366" />
      <stop offset="100%" stop-color="#FFFFFF" />
    </linearGradient>

    <!-- Spark Glow -->
    <radialGradient id="spark-glow-a" cx="50%" cy="50%" r="50%">
      <stop offset="0%" stop-color="#FFFFFF" stop-opacity="1" />
      <stop offset="35%" stop-color="#FFA24A" stop-opacity="0.8" />
      <stop offset="70%" stop-color="#F54E00" stop-opacity="0.3" />
      <stop offset="100%" stop-color="#F54E00" stop-opacity="0" />
    </radialGradient>

    <filter id="soft-glow" x="-20%" y="-20%" width="140%" height="140%">
      <feGaussianBlur stdDeviation="12" result="blur" />
      <feComposite in="SourceGraphic" in2="blur" operator="over" />
    </filter>
  </defs>

  <!-- Background Squircle -->
  <rect width="512" height="512" rx="128" fill="url(#bg-grad-a)" />
  <rect width="510" height="510" x="1" y="1" rx="127" fill="none" stroke="url(#rim-grad-a)" stroke-width="2" />
  
  <!-- Subtle ambient aura -->
  <circle cx="256" cy="256" r="190" fill="url(#center-glow-a)" />

  <!-- THE ICONIC LOGO EMBLEM -->
  <g>
    <!-- Background pulse wave reflection / underglow -->
    <path d="M 120 264 L 186 264 L 216 196 L 254 332 L 290 220 L 320 264 L 392 264"
          fill="none"
          stroke="#F54E00"
          stroke-width="24"
          stroke-linecap="round"
          stroke-linejoin="round"
          opacity="0.25"
          filter="url(#soft-glow)" />

    <!-- Solid Main Pulse Stem ("P" spine) -->
    <path d="M 172 136 L 172 376"
          fill="none"
          stroke="url(#ribbon-grad)"
          stroke-width="38"
          stroke-linecap="round" />

    <!-- "P" Head Outer Arc -->
    <path d="M 172 136 C 248 116, 372 136, 372 230 C 372 314, 260 318, 172 318"
          fill="none"
          stroke="url(#ribbon-grad)"
          stroke-width="38"
          stroke-linecap="round"
          stroke-linejoin="round" />

    <!-- Kinetic Heartbeat Wave inside the P -->
    <path d="M 172 260 L 218 260 L 244 186 L 276 314 L 306 238 L 328 260 L 366 260"
          fill="none"
          stroke="url(#pulse-line-grad)"
          stroke-width="22"
          stroke-linecap="round"
          stroke-linejoin="round" />

    <!-- Radiant AI Core Spark (Intelligence Sparkle) in the upper focal quadrant -->
    <circle cx="282" cy="186" r="32" fill="url(#spark-glow-a)" />
    <!-- 4-point Diamond Star -->
    <path d="M 282 160 Q 282 186 256 186 Q 282 186 282 212 Q 282 186 308 186 Q 282 186 282 160 Z"
          fill="#FFFFFF" />

    <!-- Dynamic micro credit pip at stem base -->
    <circle cx="172" cy="376" r="10" fill="#FFA959" />
  </g>
</svg>